<svg width="23" height="22" viewBox="0 0 23 22" fill="none" xmlns="http://www.w3.org/2000/svg">
<path fill-rule="evenodd" clip-rule="evenodd" d="M11.5 1.75C6.39136 1.75 2.25 5.89136 2.25 11C2.25 16.1086 6.39137 20.25 11.5 20.25C16.6086 20.25 20.75 16.1086 20.75 11C20.75 10.5858 21.0858 10.25 21.5 10.25C21.9142 10.25 22.25 10.5858 22.25 11C22.25 16.937 17.437 21.75 11.5 21.75C5.56293 21.75 0.75 16.937 0.75 11C0.75 5.06294 5.56294 0.25 11.5 0.25C14.2937 0.25 16.839 1.31639 18.75 3.06269V1.5C18.75 1.08579 19.0858 0.75 19.5 0.75C19.9142 0.75 20.25 1.08579 20.25 1.5V5C20.25 5.41421 19.9142 5.75 19.5 5.75H16C15.5858 5.75 15.25 5.41421 15.25 5C15.25 4.58579 15.5858 4.25 16 4.25H17.8246C16.1699 2.69872 13.946 1.75 11.5 1.75Z" fill="white"/>
</svg>
